<?xml version="1.0" encoding="UTF-8"?>
<svg version="1.1" xmlns="http://www.w3.org/2000/svg" width="256" height="256">
<path d="M0 0 C0.68336426 0.20367188 1.36672852 0.40734375 2.07080078 0.6171875 C18.92493481 5.87928283 34.5522909 14.63004853 48 26 C49.15048828 26.94166016 49.15048828 26.94166016 50.32421875 27.90234375 C69.58874351 44.08454455 82.42439373 68.02467467 89 92 C89.50853516 93.76150391 89.50853516 93.76150391 90.02734375 95.55859375 C94.79494018 115.61765155 93.87549773 140.30166849 88 160 C87.79632813 160.68336426 87.59265625 161.36672852 87.3828125 162.07080078 C82.12071717 178.92493481 73.36995147 194.5522909 62 208 C61.05833984 209.15048828 61.05833984 209.15048828 60.09765625 210.32421875 C43.91545545 229.58874351 19.97532533 242.42439373 -4 249 C-5.17433594 249.33902344 -6.34867188 249.67804688 -7.55859375 250.02734375 C-27.61765155 254.79494018 -52.30166849 253.87549773 -72 248 C-72.68336426 247.79632813 -73.36672852 247.59265625 -74.07080078 247.3828125 C-90.92493481 242.12071717 -106.5522909 233.36995147 -120 222 C-120.76699219 221.37222656 -121.53398438 220.74445313 -122.32421875 220.09765625 C-141.58874351 203.91545545 -154.42439373 179.97532533 -161 156 C-161.33902344 154.82566406 -161.67804688 153.65132812 -162.02734375 152.44140625 C-166.79494018 132.38234845 -165.87549773 107.69833151 -160 88 C-159.79632813 87.31663574 -159.59265625 86.63327148 -159.3828125 85.92919922 C-154.12071717 69.07506519 -145.36995147 53.4477091 -134 40 C-133.37222656 39.23300781 -132.74445313 38.46601562 -132.09765625 37.67578125 C-115.91545545 18.41125649 -91.97532533 5.57560627 -68 -1 C-66.82566406 -1.33902344 -65.65132813 -1.67804688 -64.44140625 -2.02734375 C-44.38234845 -6.79494018 -19.69833151 -5.87549773 0 0 Z " fill="#F3F1EC" transform="translate(164,4)"/>
<path d="M0 0 C3.24003659 2.39853109 6.21309184 5.05003128 9.18017578 7.77246094 C9.99873047 8.3925 10.81728516 9.01253906 11.66064453 9.65136719 C14.57955335 12.10868112 16.83902397 14.86416749 19.11767578 17.89746094 C19.55225098 18.47149658 19.98682617 19.04553223 20.43457031 19.63696289 C34.08797927 37.91688054 40.66546622 59.15835742 37.91650391 81.95947266 C37.23523499 86.62362587 36.26088573 91.18578586 35.18017578 95.77246094 C34.99841797 96.64902344 34.81666016 97.52558594 34.62939453 98.42871094 C30.47798277 115.37324873 17.71716803 131.17126854 4.21533203 141.73339844 C1.73035226 143.00212131 -0.06684863 142.97354785 -2.81982422 142.77246094 C-3.04345792 141.35812887 -3.24808898 139.94078476 -3.44482422 138.52246094 C-3.56083984 137.73355469 -3.67685547 136.94464844 -3.79638672 136.13183594 C-3.82412651 133.33936345 -3.36329522 132.08766744 -1.81982422 129.77246094 C-0.52669808 128.6214672 0.81301308 127.52195339 2.18017578 126.45996094 C16.64756327 113.90600211 23.95401953 94.62091406 25.50048828 75.89355469 C26.12757489 54.50990125 18.16662058 34.65241552 3.55517578 19.05371094 C-10.81944188 5.24651239 -30.16768379 -1.63022333 -49.83862305 -1.45947266 C-69.88923848 -0.98881209 -87.33425287 7.00798684 -101.81982422 20.77246094 C-115.56224141 36.22446113 -122.84470324 55.10755214 -122.19482422 75.74121094 C-120.92613558 91.98042546 -114.80152521 108.55338518 -103.81982422 120.77246094 C-103.12630859 121.56910156 -102.43279297 122.36574219 -101.71826172 123.18652344 C-90.08402077 135.7302816 -72.88523836 144.12328226 -55.81982422 145.77246094 C-51.812568 145.90790433 -47.827002 145.89834087 -43.81982422 145.77246094 C-39.14850973 136.25445837 -34.92485497 126.54631238 -30.81982422 116.77246094 C-30.31475342 115.60352295 -29.80968262 114.43458496 -29.28930664 113.23022461 C-28.82500244 112.1097876 -28.36069824 110.98935059 -27.88232422 109.83496094 C-27.46080078 108.8359375 -27.03927734 107.83691406 -26.60498047 106.80761719 C-24.69150113 99.41073438 -28.20518416 92.75589569 -31.00341797 86.01855469 C-31.41898453 84.99947525 -31.83455109 83.98039581 -32.26271057 82.93043518 C-33.58682178 79.68717866 -34.92161635 76.44845654 -36.25732422 73.20996094 C-37.5873625 69.96707485 -38.91515841 66.72328665 -40.2412262 63.47877502 C-41.06539004 61.46424195 -41.89220773 59.45079198 -42.72203064 57.43858337 C-43.09904617 56.52065506 -43.47606171 55.60272675 -43.86450195 54.65698242 C-44.19457748 53.85646957 -44.52465302 53.05595673 -44.86473083 52.23118591 C-45.94618398 49.44716929 -46.87535138 46.60587946 -47.81982422 43.77246094 C-43.19982422 43.77246094 -38.57982422 43.77246094 -33.81982422 43.77246094 C-32.18178121 47.70015841 -30.54533189 51.62845167 -28.91259766 55.55834961 C-28.35878678 56.8900947 -27.80412485 58.22148626 -27.24853516 59.55249023 C-23.90778183 67.5576347 -20.68630419 75.58206046 -17.81982422 83.77246094 C-13.69302777 76.0884259 -10.72050506 67.97282242 -7.63232422 59.83496094 C-6.81541253 57.6870528 -5.99730487 55.53963023 -5.1759491 53.39341736 C-4.6679573 52.06564531 -4.16258799 50.73686633 -3.66011047 49.40699768 C-1.93206296 44.88469968 -1.93206296 44.88469968 -0.81982422 43.77246094 C3.51332637 43.62859804 7.84529939 43.73037476 12.18017578 43.77246094 C7.87495778 55.58299265 3.17792751 67.20896834 -1.65130615 78.81402588 C-3.75868356 83.87856505 -5.8573053 88.94673119 -7.95654297 94.01464844 C-8.37301086 95.01954315 -8.78947876 96.02443787 -9.21856689 97.05978394 C-13.43632831 107.24465897 -17.59004236 117.45504143 -21.72241211 127.67480469 C-23.08470296 131.04212964 -24.45139262 134.40762756 -25.81982422 137.77246094 C-26.27268799 138.89354248 -26.72555176 140.01462402 -27.19213867 141.16967773 C-27.63001709 142.2412915 -28.06789551 143.31290527 -28.51904297 144.41699219 C-28.90406982 145.36421143 -29.28909668 146.31143066 -29.68579102 147.28735352 C-32.35527411 153.13722831 -35.85368128 156.27351562 -41.81982422 158.77246094 C-62.25685426 161.21056277 -83.91778715 153.73343808 -100.25732422 141.64746094 C-118.8481327 126.44889301 -131.88761386 107.07830384 -134.81982422 82.77246094 C-136.61582032 59.00593258 -131.2318977 36.35930611 -115.81982422 17.77246094 C-115.13146484 16.92167969 -114.44310547 16.07089844 -113.73388672 15.19433594 C-85.72194391 -17.77278809 -35.76089132 -24.12205012 0 0 Z " fill="#54C89C" transform="translate(175.81982421875,55.2275390625)"/>
<path d="M0 0 C4.62 0 9.24 0 14 0 C15.63804301 3.92769748 17.27449233 7.85599073 18.90722656 11.78588867 C19.46103744 13.11763377 20.01569937 14.44902533 20.57128906 15.7800293 C23.91204238 23.78517376 27.13352003 31.80959953 30 40 C34.12679645 32.31596496 37.09931916 24.20036148 40.1875 16.0625 C41.00441169 13.91459186 41.82251935 11.76716929 42.64387512 9.62095642 C43.15186692 8.29318437 43.65723623 6.96440539 44.15971375 5.63453674 C45.88776126 1.11223874 45.88776126 1.11223874 47 0 C51.33315059 -0.1438629 55.66512361 -0.04208618 60 0 C55.694782 11.81053171 50.99775173 23.4365074 46.16851807 35.04156494 C44.06114065 40.10610411 41.96251891 45.17427025 39.86328125 50.2421875 C39.44681335 51.24708221 39.03034546 52.25197693 38.60125732 53.287323 C34.38349591 63.47219804 30.22978185 73.68258049 26.09741211 83.90234375 C24.73512126 87.26966871 23.36843159 90.63516663 22 94 C21.54713623 95.12108154 21.09427246 96.24216309 20.62768555 97.3972168 C20.18980713 98.46883057 19.75192871 99.54044434 19.30078125 100.64453125 C18.72324097 102.06536011 18.72324097 102.06536011 18.1340332 103.51489258 C15.46455011 109.36476738 11.96614294 112.50105469 6 115 C-14.43703004 117.43810183 -36.09796293 109.96097715 -52.4375 97.875 C-56.36074866 94.70073518 -59.97255303 91.22839965 -63.5625 87.6875 C-64.36868774 86.89545166 -64.36868774 86.89545166 -65.19116211 86.08740234 C-69 82.24571361 -69 82.24571361 -69 80 C-66.21232537 76.90258375 -63.76690636 74.73857216 -60 73 C-58.72769531 74.37671875 -58.72769531 74.37671875 -57.4296875 75.78125 C-43.36663125 90.63807415 -25.68802329 101.40215306 -4.6484375 102.11328125 C-1.7619089 102.12342128 1.11506056 102.09062637 4 102 C8.67131449 92.48199744 12.89496925 82.77385144 17 73 C17.5050708 71.83106201 18.0101416 70.66212402 18.53051758 69.45776367 C18.99482178 68.33732666 19.45912598 67.21688965 19.9375 66.0625 C20.35902344 65.06347656 20.78054687 64.06445312 21.21484375 63.03515625 C23.12832309 55.63827344 19.61464006 48.98343475 16.81640625 42.24609375 C16.40083969 41.22701431 15.98527313 40.20793488 15.55711365 39.15797424 C14.23300244 35.91471772 12.89820787 32.6759956 11.5625 29.4375 C10.23246172 26.19461391 8.90466581 22.95082571 7.57859802 19.70631409 C6.75443417 17.69178102 5.92761649 15.67833104 5.09779358 13.66612244 C4.53227028 12.28922997 4.53227028 12.28922997 3.95532227 10.88452148 C3.62524673 10.08400864 3.2951712 9.28349579 2.95509338 8.45872498 C1.87364024 5.67470835 0.94447284 2.83341852 0 0 Z " fill="#1E2131" transform="translate(128,99)"/>
<path d="M0 0 C5.48027855 3.24827602 10.61892851 7.40723759 13.25390625 13.3359375 C13.25390625 14.3259375 13.25390625 15.3159375 13.25390625 16.3359375 C11.818366 16.84153658 10.38038605 17.3402124 8.94140625 17.8359375 C8.14089844 18.114375 7.34039062 18.3928125 6.515625 18.6796875 C4.25390625 19.3359375 4.25390625 19.3359375 1.25390625 19.3359375 C0.65578125 18.4078125 0.05765625 17.4796875 -0.55859375 16.5234375 C-3.12638261 12.78180231 -4.44924104 11.7421802 -8.74609375 10.3359375 C-14.04943588 9.6957427 -18.30789295 9.65606076 -23.18359375 11.9609375 C-28.20414672 16.61413294 -30.02113804 19.83112633 -30.37109375 26.7109375 C-30.20401023 32.33394066 -29.06617389 35.58220662 -25.44921875 39.84765625 C-21.32670678 43.45012658 -17.67416685 43.77027442 -12.3515625 43.65234375 C-8.27544635 43.15734314 -5.02704454 41.79861759 -1.74609375 39.3359375 C0.26510371 36.77193976 0.26510371 36.77193976 1.25390625 34.3359375 C2.69184017 34.64643476 4.12923805 34.9594151 5.56640625 35.2734375 C6.36691406 35.44746094 7.16742188 35.62148437 7.9921875 35.80078125 C10.25390625 36.3359375 10.25390625 36.3359375 13.25390625 37.3359375 C11.67220597 43.82090865 8.45830293 48.36983291 2.77734375 51.85546875 C-5.72634105 56.20764962 -14.0367099 58.0601367 -23.54296875 55.6171875 C-33.18815895 51.99293421 -38.45948953 46.19643651 -42.86328125 37.00390625 C-45.47148971 29.12157713 -44.51428914 19.94065262 -40.98828125 12.51171875 C-32.60209387 -2.177295 -15.39163766 -7.1506455 0 0 Z " fill="#1F2231" transform="translate(115.74609375,100.6640625)"/>
<path d="M0 0 C0.33 0.99 0.66 1.98 1 3 C1.66 3 2.32 3 3 3 C3 4.98 3 6.96 3 9 C3.66 9 4.32 9 5 9 C5 11.97 5 14.94 5 18 C5.99 18 6.98 18 8 18 C9.4783226 20.95664519 9.06032783 23.74229737 9 27 C9.66 27 10.32 27 11 27 C11.33 26.34 11.66 25.68 12 25 C10.53561776 46.59963801 -1.09124025 64.90898974 -16.58984375 79.42578125 C-20.56585717 82.72699705 -22.69358739 84.38759883 -28 84 C-28.2236337 82.58566794 -28.42826476 81.16832382 -28.625 79.75 C-28.74101562 78.96109375 -28.85703125 78.1721875 -28.9765625 77.359375 C-29.00430229 74.56690251 -28.543471 73.3152065 -27 71 C-25.70687386 69.84900626 -24.3671627 68.74949245 -23 67.6875 C-13.1885929 59.17373061 -6.68728794 47.33592674 -3 35 C-2.52433594 33.42412109 -2.52433594 33.42412109 -2.0390625 31.81640625 C0.66036509 21.30349789 0.30085817 10.77843691 0 0 Z " fill="#A4E0C5" transform="translate(201,114)"/>
<path d="M0 0 C3.40035254 1.32502 5.45546396 3.38207545 7.90600586 6.03686523 C17.08261252 15.95772718 27.5153166 21.44810542 40.2578125 25.9921875 C42.61399336 26.85813431 44.78629897 27.82430232 47 29 C46.34 29 45.68 29 45 29 C44.855625 30.27875 44.71125 31.5575 44.5625 32.875 C44.29357254 35.25692894 44.07773654 36.84452691 43 39 C43.99 39.495 43.99 39.495 45 40 C26.93309276 38.7395181 10.87618297 26.95624063 -1.5625 14.6875 C-2.0999585 14.15946777 -2.63741699 13.63143555 -3.19116211 13.08740234 C-7 9.24571361 -7 9.24571361 -7 7 C-5.37660195 5.29115995 -3.70680947 3.62553283 -2 2 C-1.34 1.34 -0.68 0.68 0 0 Z " fill="#218D6E" transform="translate(66,172)"/>
<path d="M0 0 C0.33 0.99 0.66 1.98 1 3 C1.66 3 2.32 3 3 3 C3 4.98 3 6.96 3 9 C3.66 9 4.32 9 5 9 C5 11.97 5 14.94 5 18 C5.99 18 6.98 18 8 18 C9.4783226 20.95664519 9.06032783 23.74229737 9 27 C9.66 27 10.32 27 11 27 C11.33 26.34 11.66 25.68 12 25 C11.1161152 38.03730079 6.48975983 48.86167625 0 60 C-0.66 60 -1.32 60 -2 60 C-3.43645471 50.32470585 -4.70457612 41.69270412 -2.2578125 32.0859375 C0.38615254 21.33381301 0.30761046 11.02034196 0 0 Z " fill="#80D8B2" transform="translate(201,114)"/>
<path d="M0 0 C0.49628906 0.27714844 0.99257812 0.55429688 1.50390625 0.83984375 C6.09563804 3.28818651 9.7895567 4.3711534 15 5 C18.36281074 5.90860085 21.6825355 6.93867836 25 8 C24.01 8.495 24.01 8.495 23 9 C22.71073053 11.02488628 22.42727846 13.05244016 22.24609375 15.08984375 C22 17 22 17 21 19 C21.66 19.33 22.32 19.66 23 20 C14.30672861 19.39349269 5.16682081 15.92475933 -2 11 C-3.22538136 7.89570055 -3.13816584 6.43423551 -2.125 3.25 C-1 1 -1 1 0 0 Z " fill="#216357" transform="translate(88,192)"/>
<path d="M0 0 C5.48677955 -0.08441199 10.59280411 0.07962623 16 1 C16.39253254 5.44870215 15.15305957 8.14243493 13 12 C16.3 12 19.6 12 23 12 C23 12.33 23 12.66 23 13 C4.85074627 13.42537313 4.85074627 13.42537313 -2 10 C-1.34 6.7 -0.68 3.4 0 0 Z " fill="#1B2834" transform="translate(111,201)"/>
<path d="M0 0 C0.99 0.66 1.98 1.32 3 2 C3.29296875 4.1640625 3.29296875 4.1640625 3.1875 6.625 C3.16042969 7.44226563 3.13335937 8.25953125 3.10546875 9.1015625 C3.07066406 9.72804687 3.03585938 10.35453125 3 11 C3.66 11 4.32 11 5 11 C5 10.01 5 9.02 5 8 C6.32 8.33 7.64 8.66 9 9 C7.11631566 10.68239749 5.2201007 12.34510607 3.3125 14 C2.51682617 14.71542969 2.51682617 14.71542969 1.70507812 15.4453125 C-0.85725565 17.64608997 -2.48830763 18.94475656 -5.89453125 19.3125 C-6.58933594 19.209375 -7.28414062 19.10625 -8 19 C-8.2236337 17.58566794 -8.42826476 16.16832382 -8.625 14.75 C-8.74101562 13.96109375 -8.85703125 13.1721875 -8.9765625 12.359375 C-9.00419105 9.57810108 -8.51819679 8.31525011 -7 6 C-5.2734375 4.296875 -5.2734375 4.296875 -3.375 2.75 C-2.74335938 2.22921875 -2.11171875 1.7084375 -1.4609375 1.171875 C-0.73777344 0.59179688 -0.73777344 0.59179688 0 0 Z " fill="#C9E8D7" transform="translate(181,179)"/>
<path d="M0 0 C3.25471461 4.88207191 4.25410613 8.43817111 4.125 14.3125 C4.10695312 15.38113281 4.08890625 16.44976562 4.0703125 17.55078125 C4.03550781 18.76314453 4.03550781 18.76314453 4 20 C5.32 19.67 6.64 19.34 8 19 C6.63408831 22.54243452 5.09068516 25.92627929 3.375 29.3125 C2.92898437 30.19550781 2.48296875 31.07851562 2.0234375 31.98828125 C1.68570313 32.65214844 1.34796875 33.31601563 1 34 C0.34 34 -0.32 34 -1 34 C-3.58483391 16.58975506 -3.58483391 16.58975506 -2 9 C-1.82855469 8.16210938 -1.65710938 7.32421875 -1.48046875 6.4609375 C-1.01533137 4.29921987 -0.52310918 2.14830273 0 0 Z " fill="#95DCBD" transform="translate(200,140)"/>
<path d="M0 0 C4.14032846 1.54385129 7.93553053 3.51028938 11.8125 5.625 C12.40998047 5.94984375 13.00746094 6.2746875 13.62304688 6.609375 C15.08337135 7.40379151 16.54187491 8.20155376 18 9 C17.01 9.66 16.02 10.32 15 11 C12.69 9.68 10.38 8.36 8 7 C7.26919734 8.97746603 6.60578253 10.98072489 6 13 C6.33 13.66 6.66 14.32 7 15 C6.34 15.66 5.68 16.32 5 17 C2.30274481 15.11192137 0.86783571 13.80175356 -1 11 C-1.99 10.01 -2.98 9.02 -4 8 C-2.68 5.36 -1.36 2.72 0 0 Z " fill="#1E7C64" transform="translate(80,186)"/>
<path d="M0 0 C2 2 2 2 2.1953125 4.1640625 C2.17210937 4.97617188 2.14890625 5.78828125 2.125 6.625 C2.10695312 7.44226563 2.08890625 8.25953125 2.0703125 9.1015625 C2.03550781 10.04128906 2.03550781 10.04128906 2 11 C3.32 11.33 4.64 11.66 6 12 C4.56429734 12.81567174 3.12636566 13.62742093 1.6875 14.4375 C0.88699219 14.88996094 0.08648437 15.34242188 -0.73828125 15.80859375 C-3 17 -3 17 -6 18 C-6.33 15.03 -6.66 12.06 -7 9 C-7.99 8.67 -8.98 8.34 -10 8 C-6.97727468 4.74475735 -3.74281699 2.38179263 0 0 Z " fill="#E1EDE3" transform="translate(171,187)"/>
<path d="M0 0 C3.7952131 1.49097658 5.61042731 3.75700849 8 7 C7.57847656 7.38671875 7.15695313 7.7734375 6.72265625 8.171875 C6.17480469 8.69265625 5.62695312 9.2134375 5.0625 9.75 C4.51722656 10.26046875 3.97195312 10.7709375 3.41015625 11.296875 C1.83955308 13.19378076 1.41268714 14.59701161 1 17 C-0.33929505 15.71451591 -1.67128643 14.42141845 -3 13.125 C-3.7425 12.40570313 -4.485 11.68640625 -5.25 10.9453125 C-7 9 -7 9 -7 7 C-5.37660195 5.29115995 -3.70680947 3.62553283 -2 2 C-1.34 1.34 -0.68 0.68 0 0 Z " fill="#209B76" transform="translate(66,172)"/>
<path d="M0 0 C0.66 0.33 1.32 0.66 2 1 C2.66 1 3.32 1 4 1 C5.54278761 1.15594965 7.08437905 1.32392903 8.625 1.5 C9.44226563 1.5928125 10.25953125 1.685625 11.1015625 1.78125 C11.72804688 1.8534375 12.35453125 1.925625 13 2 C12.01 2.495 12.01 2.495 11 3 C10.71073053 5.02488628 10.42727846 7.05244016 10.24609375 9.08984375 C10 11 10 11 9 13 C9.66 13.33 10.32 13.66 11 14 C4.375 13.25 4.375 13.25 1 11 C0.8125 8.375 0.8125 8.375 1 6 C0.01 6.99 -0.98 7.98 -2 9 C-1.125 1.125 -1.125 1.125 0 0 Z " fill="#1E4F4B" transform="translate(100,198)"/>
<path d="M0 0 C0.68707555 2.49064888 1 4.37886292 1 7 C1.66 7 2.32 7 3 7 C4.125 14.75 4.125 14.75 3 17 C1.35 17 -0.3 17 -2 17 C-2 17.99 -2 18.98 -2 20 C-2.66 20 -3.32 20 -4 20 C-4.16947579 18.58366664 -4.33545507 17.16691467 -4.5 15.75 C-4.5928125 14.96109375 -4.685625 14.1721875 -4.78125 13.359375 C-5.18679917 8.98523755 -5.16097749 6.70927074 -2.5 3.25 C-2.0359375 2.63640625 -1.571875 2.0228125 -1.09375 1.390625 C-0.55234375 0.70226562 -0.55234375 0.70226562 0 0 Z " fill="#BAE5D0" transform="translate(188,170)"/>
<path d="M0 0 C2.97 0 5.94 0 9 0 C8.01 0.33 7.02 0.66 6 1 C5.67 4.63 5.34 8.26 5 12 C0 11 0 11 -2 10 C-1.34 6.7 -0.68 3.4 0 0 Z " fill="#1E3E41" transform="translate(111,201)"/>
<path d="M0 0 C0.66 0.33 1.32 0.66 2 1 C2 1.66 2 2.32 2 3 C2.66 3 3.32 3 4 3 C4.19412181 4.47831221 4.38012131 5.95769316 4.5625 7.4375 C4.66691406 8.26121094 4.77132812 9.08492187 4.87890625 9.93359375 C4.91886719 10.61550781 4.95882812 11.29742187 5 12 C4 13 4 13 1.4375 13.0625 C0.633125 13.041875 -0.17125 13.02125 -1 13 C-1.2236337 11.58566794 -1.42826476 10.16832382 -1.625 8.75 C-1.74101562 7.96109375 -1.85703125 7.1721875 -1.9765625 6.359375 C-2.00319395 3.67847541 -1.36592084 2.27305911 0 0 Z " fill="#D4EADD" transform="translate(174,185)"/>
<path d="M0 0 C0.33 0.99 0.66 1.98 1 3 C1.66 3 2.32 3 3 3 C3 4.98 3 6.96 3 9 C3.66 9 4.32 9 5 9 C5 12.96 5 16.92 5 21 C3.68 21 2.36 21 1 21 C0.67 14.07 0.34 7.14 0 0 Z " fill="#73D5AC" transform="translate(201,114)"/>
<path d="M0 0 C2.81197457 2.81197457 2.69902557 5.84011245 3.125 9.625 C3.21136719 10.33140625 3.29773438 11.0378125 3.38671875 11.765625 C3.59881183 13.50950141 3.80040991 15.2546484 4 17 C3.01 17.66 2.02 18.32 1 19 C0.67 16.69 0.34 14.38 0 12 C-0.66 12 -1.32 12 -2 12 C-3.6442351 7.06729471 -2.18615592 4.45975807 0 0 Z " fill="#AFE2CA" transform="translate(191,165)"/>
<path d="M0 0 C0.99 0.33 1.98 0.66 3 1 C2.979375 2.216875 2.95875 3.43375 2.9375 4.6875 C2.93175884 7.91977322 3.21233685 10.84934741 4 14 C1.0625 12.8125 1.0625 12.8125 -2 11 C-3.30812411 7.89320525 -3.14539298 6.45694936 -2.125 3.25 C-1 1 -1 1 0 0 Z " fill="#1D6F5C" transform="translate(88,192)"/>
<path d="M0 0 C0.66 0 1.32 0 2 0 C2 2.31 2 4.62 2 7 C6.62 7 11.24 7 16 7 C16 7.33 16 7.66 16 8 C13.54159395 8.02691685 11.08348118 8.04679802 8.625 8.0625 C7.92632812 8.07087891 7.22765625 8.07925781 6.5078125 8.08789062 C1.2265625 8.11328125 1.2265625 8.11328125 -1 7 C-0.67 4.69 -0.34 2.38 0 0 Z " fill="#3E4B53" transform="translate(118,206)"/>
<path d="M0 0 C4.49797113 1.68673918 8.72886302 3.81673892 13 6 C12.01 6.66 11.02 7.32 10 8 C6.37 6.02 2.74 4.04 -1 2 C-0.67 1.34 -0.34 0.68 0 0 Z " fill="#2B7865" transform="translate(85,189)"/>
<path d="M0 0 C1.32 0 2.64 0 4 0 C4 1.32 4 2.64 4 4 C3.01 4 2.02 4 1 4 C0.67 6.31 0.34 8.62 0 11 C-0.33 11 -0.66 11 -1 11 C-1.0270043 9.54176788 -1.04639787 8.08339325 -1.0625 6.625 C-1.07410156 5.81289062 -1.08570312 5.00078125 -1.09765625 4.1640625 C-1 2 -1 2 0 0 Z " fill="#1B333A" transform="translate(117,202)"/>
</svg>
