<?xml version="1.0" encoding="UTF-8"?>
<svg version="1.1" xmlns="http://www.w3.org/2000/svg" width="256" height="256">
<path d="M0 0 C0.68336426 0.20367188 1.36672852 0.40734375 2.07080078 0.6171875 C18.92493481 5.87928283 34.5522909 14.63004853 48 26 C49.15048828 26.94166016 49.15048828 26.94166016 50.32421875 27.90234375 C69.58874351 44.08454455 82.42439373 68.02467467 89 92 C89.50853516 93.76150391 89.50853516 93.76150391 90.02734375 95.55859375 C94.79494018 115.61765155 93.87549773 140.30166849 88 160 C87.79632813 160.68336426 87.59265625 161.36672852 87.3828125 162.07080078 C82.12071717 178.92493481 73.36995147 194.5522909 62 208 C61.05833984 209.15048828 61.05833984 209.15048828 60.09765625 210.32421875 C43.91545545 229.58874351 19.97532533 242.42439373 -4 249 C-5.17433594 249.33902344 -6.34867188 249.67804688 -7.55859375 250.02734375 C-27.61765155 254.79494018 -52.30166849 253.87549773 -72 248 C-72.68336426 247.79632813 -73.36672852 247.59265625 -74.07080078 247.3828125 C-90.92493481 242.12071717 -106.5522909 233.36995147 -120 222 C-120.76699219 221.37222656 -121.53398438 220.74445313 -122.32421875 220.09765625 C-141.58874351 203.91545545 -154.42439373 179.97532533 -161 156 C-161.33902344 154.82566406 -161.67804688 153.65132812 -162.02734375 152.44140625 C-166.79494018 132.38234845 -165.87549773 107.69833151 -160 88 C-159.79632813 87.31663574 -159.59265625 86.63327148 -159.3828125 85.92919922 C-154.12071717 69.07506519 -145.36995147 53.4477091 -134 40 C-133.37222656 39.23300781 -132.74445313 38.46601562 -132.09765625 37.67578125 C-115.91545545 18.41125649 -91.97532533 5.57560627 -68 -1 C-66.82566406 -1.33902344 -65.65132813 -1.67804688 -64.44140625 -2.02734375 C-44.38234845 -6.79494018 -19.69833151 -5.87549773 0 0 Z " fill="#F3F1EC" transform="translate(164,4)"/>
<path d="M0 0 C42.57 0 85.14 0 129 0 C129 2.31 129 4.62 129 7 C129.94875 6.95875 130.8975 6.9175 131.875 6.875 C135 7 135 7 137 9 C137.23950195 11.71801758 137.23950195 11.71801758 137.23828125 15.14453125 C137.25439453 16.37880859 137.27050781 17.61308594 137.28710938 18.88476562 C137.30396038 21.4914872 137.30927418 24.09831029 137.30273438 26.70507812 C137.32271484 27.94322266 137.34269531 29.18136719 137.36328125 30.45703125 C137.36626221 31.59116455 137.36924316 32.72529785 137.37231445 33.89379883 C138.17982783 37.88990645 139.9465653 39.40471686 143 42 C141.78111084 42.79845337 141.78111084 42.79845337 140.53759766 43.61303711 C137.76242832 45.7687694 137.76242832 45.7687694 137.38818359 48.88500977 C137.39325928 50.52167603 137.39325928 50.52167603 137.3984375 52.19140625 C137.37523437 53.97901367 137.37523437 53.97901367 137.3515625 55.80273438 C137.35929688 57.04345703 137.36703125 58.28417969 137.375 59.5625 C137.375 62.02216988 137.36257016 64.48188056 137.3359375 66.94140625 C137.34439697 68.57638062 137.34439697 68.57638062 137.35302734 70.24438477 C137 73 137 73 135.64697266 74.86694336 C133.38586661 76.4225012 131.67931126 76.21724145 129 76 C129 78.64 129 81.28 129 84 C80.82 84 32.64 84 -17 84 C-17 81.36 -17 78.72 -17 76 C-18.423125 76.0928125 -18.423125 76.0928125 -19.875 76.1875 C-20.90625 76.125625 -21.9375 76.06375 -23 76 C-25.32881153 72.50678271 -25.23981438 71.10068101 -25.23828125 66.9765625 C-25.25439453 65.790625 -25.27050781 64.6046875 -25.28710938 63.3828125 C-25.30398332 60.88546824 -25.30926521 58.38801773 -25.30273438 55.890625 C-25.11166164 48.64331032 -25.11166164 48.64331032 -28.54296875 42.6484375 C-29.75919922 41.83246094 -29.75919922 41.83246094 -31 41 C-30.18813232 40.46769775 -29.37626465 39.93539551 -28.53979492 39.38696289 C-25.76491967 37.23062436 -25.76491967 37.23062436 -25.37231445 34.11499023 C-25.3693335 33.02387939 -25.36635254 31.93276855 -25.36328125 30.80859375 C-25.34330078 29.61685547 -25.32332031 28.42511719 -25.30273438 27.19726562 C-25.30595703 25.95654297 -25.30917969 24.71582031 -25.3125 23.4375 C-25.29594062 20.97779591 -25.27157219 18.51812829 -25.23828125 16.05859375 C-25.23868408 14.96861084 -25.23908691 13.87862793 -25.23950195 12.75561523 C-25 10 -25 10 -23 7 C-21.0546875 6.70703125 -21.0546875 6.70703125 -18.875 6.8125 C-17.59625 6.874375 -16.3175 6.93625 -15 7 C-14.99120064 7.97599655 -14.99120064 7.97599655 -14.98222351 8.97171021 C-14.91821645 15.75290906 -14.83377737 22.53363656 -14.73754883 29.31445312 C-14.70432486 31.84401225 -14.67628511 34.37364505 -14.65356445 36.90332031 C-14.61997296 40.54263667 -14.56765246 44.18127934 -14.51171875 47.8203125 C-14.50532883 48.94865509 -14.4989389 50.07699768 -14.49235535 51.23953247 C-14.36908568 57.84479211 -14.05160315 62.96116507 -9.1328125 67.859375 C-6.53107593 69.25077991 -4.8103844 69.33762342 -1.875 69.25 C-0.57175781 69.22679687 -0.57175781 69.22679687 0.7578125 69.203125 C3.03554372 69.1341831 3.03554372 69.1341831 5 68 C4.93993922 66.54052295 4.8511311 65.08220728 4.75 63.625 C4.70359375 62.81289062 4.6571875 62.00078125 4.609375 61.1640625 C4.30773437 60.09285156 4.30773437 60.09285156 4 59 C2.68 58.34 1.36 57.68 0 57 C0 38.19 0 19.38 0 0 Z " fill="#325284" transform="translate(72,86)"/>
<path d="M0 0 C1.42247003 0.03011718 2.84500098 0.05748995 4.26757812 0.08203125 C7.74215683 0.14793801 11.21444165 0.25135849 14.6875 0.375 C14.68892502 1.06991043 14.69035004 1.76482086 14.69181824 2.48078918 C14.70964581 9.02885906 14.75125057 15.57629521 14.81959057 22.12404346 C14.85388662 25.49041978 14.87897435 28.85634109 14.88305664 32.22290039 C14.89231061 36.09319321 14.93322749 39.96203915 14.98046875 43.83203125 C14.9765361 45.04147903 14.97260345 46.25092682 14.96855164 47.49702454 C14.98819473 48.61796005 15.00783783 49.73889557 15.02807617 50.89379883 C15.03473801 51.88197098 15.04139984 52.87014313 15.04826355 53.88825989 C15.45799949 56.62186651 15.45799949 56.62186651 18.18452454 58.06254578 C19.01050644 58.49565567 19.83648834 58.92876556 20.6875 59.375 C21.39453125 61.85546875 21.39453125 61.85546875 21.5 64.5625 C21.54769531 65.46355469 21.59539062 66.36460937 21.64453125 67.29296875 C21.65871094 67.98003906 21.67289063 68.66710937 21.6875 69.375 C16.95887323 70.95120892 11.3848124 71.69893541 6.76953125 69.43359375 C3.47883878 66.84166561 1.94642581 64.28376918 0.6875 60.375 C0.44699097 57.76164246 0.44699097 57.76164246 0.46044922 54.94213867 C0.46060028 53.88141647 0.46075134 52.82069427 0.46090698 51.72782898 C0.47122955 50.5943251 0.48155212 49.46082123 0.4921875 48.29296875 C0.4950174 47.12365311 0.49784729 45.95433746 0.50076294 44.74958801 C0.51194438 41.02045392 0.53704566 37.29156132 0.5625 33.5625 C0.57253241 31.03190451 0.58165781 28.50130526 0.58984375 25.97070312 C0.61187708 19.77205323 0.64533466 13.57354387 0.6875 7.375 C-0.611875 7.49875 -1.91125 7.6225 -3.25 7.75 C-4.34634766 7.85441406 -4.34634766 7.85441406 -5.46484375 7.9609375 C-6.07457031 8.09757812 -6.68429688 8.23421875 -7.3125 8.375 C-8.67061699 11.09123397 -8.43963924 13.2631136 -8.453125 16.30078125 C-8.47246094 17.48994141 -8.49179687 18.67910156 -8.51171875 19.90429688 C-8.54541347 22.4145536 -8.5637898 24.92506539 -8.56640625 27.43554688 C-8.77602175 37.64602828 -8.77602175 37.64602828 -11.859375 40.73046875 C-12.66890625 41.27316406 -13.4784375 41.81585938 -14.3125 42.375 C-13.50135742 42.90657715 -12.69021484 43.4381543 -11.85449219 43.98583984 C-9.3125 46.375 -9.3125 46.375 -8.66894531 49.27587891 C-8.65959961 50.37335449 -8.65025391 51.47083008 -8.640625 52.6015625 C-8.61613281 53.7978125 -8.59164062 54.9940625 -8.56640625 56.2265625 C-8.56447266 58.09441406 -8.56447266 58.09441406 -8.5625 60 C-8.52944627 62.47140205 -8.49315684 64.94276364 -8.453125 67.4140625 C-8.44829102 68.50928223 -8.44345703 69.60450195 -8.43847656 70.73291016 C-8.49190411 73.35294813 -8.49190411 73.35294813 -7.3125 75.375 C-4.78516765 76.03055119 -4.78516765 76.03055119 -2.3125 76.375 C-2.3125 78.685 -2.3125 80.995 -2.3125 83.375 C-5.51252419 84.9750121 -8.83184876 84.73729827 -12.3125 84.375 C-17.61375899 82.41157074 -17.61375899 82.41157074 -19.45068359 79.68652344 C-20.59540832 76.6161966 -20.64040038 73.9147857 -20.7265625 70.640625 C-20.76523437 69.34511719 -20.80390625 68.04960937 -20.84375 66.71484375 C-20.87520267 65.35156716 -20.90645007 63.98828582 -20.9375 62.625 C-20.97570469 61.24606972 -21.01475787 59.86716266 -21.0546875 58.48828125 C-21.14898004 55.11732282 -21.2345822 51.74637022 -21.3125 48.375 C-23.6225 47.715 -25.9325 47.055 -28.3125 46.375 C-28.3125 43.405 -28.3125 40.435 -28.3125 37.375 C-26.0025 36.385 -23.6925 35.395 -21.3125 34.375 C-21.30839111 33.55821777 -21.30428223 32.74143555 -21.30004883 31.89990234 C-21.26706076 28.18254325 -21.19640672 24.46681142 -21.125 20.75 C-21.11919922 19.46480469 -21.11339844 18.17960937 -21.10742188 16.85546875 C-20.85798805 6.15752913 -20.85798805 6.15752913 -18.71875 2.5 C-14.11959409 -1.78177376 -5.87717048 -0.21543979 0 0 Z " fill="#F8F7F7" transform="translate(56.3125,85.625)"/>
<path d="M0 0 C6.0981465 3.62353632 8.6012391 8.57189882 10.5 15.3125 C10.5 19.2725 10.5 23.2325 10.5 27.3125 C0.6 27.3125 -9.3 27.3125 -19.5 27.3125 C-16.57118237 33.54708618 -16.57118237 33.54708618 -11.5 37.3125 C-5.73132161 37.87991099 -1.04230234 36.89601495 4.5 35.3125 C7.72265625 40.48828125 7.72265625 40.48828125 8.5 42.3125 C7.5 45.3125 7.5 45.3125 5.3828125 46.48046875 C-2.97846801 49.57153704 -10.69455184 51.06067015 -19.25 47.8125 C-25.28956682 44.73859861 -29.67553459 39.72874836 -32.4375 33.5625 C-34.91902234 25.66815705 -34.43382404 17.52905654 -30.62109375 10.20703125 C-24.10505342 -0.80439579 -12.08642634 -5.49178404 0 0 Z " fill="#F5F4F5" transform="translate(108.5,106.6875)"/>
<path d="M0 0 C1.43034568 0.80962963 2.85277608 1.63446306 4.25 2.5 C4.25 7.21906188 2.96245796 8.77037031 0.25 12.5 C-0.513125 12.190625 -1.27625 11.88125 -2.0625 11.5625 C-6.55204922 9.78756193 -9.9191105 9.40885114 -14.75 9.5 C-15.08 10.82 -15.41 12.14 -15.75 13.5 C-12.64208791 16.08744834 -9.66359558 17.38109269 -5.875 18.75 C-0.48947176 20.96214852 3.67288093 23.08588431 6.25 28.5 C7.26914882 33.06190424 6.75313255 37.09870315 4.75 41.3125 C1.63457717 46.12521412 -3.52599935 47.75866645 -8.75 49.5 C-17.41256265 50.46957123 -24.54122182 48.30585212 -31.75 43.5 C-31.13545304 39.50544473 -29.04353263 36.75533664 -26.75 33.5 C-26.20472656 33.7165625 -25.65945312 33.933125 -25.09765625 34.15625 C-19.3905803 36.26347804 -14.8237233 36.78922492 -8.75 36.5 C-8.42 35.18 -8.09 33.86 -7.75 32.5 C-12.30277764 29.66604265 -17.0465929 27.44003405 -21.91015625 25.1953125 C-25.61314921 22.98472248 -27.82846012 20.34307977 -29.75 16.5 C-30.38126168 12.57658878 -30.58114574 9.00411495 -28.62109375 5.45703125 C-21.14342499 -3.69969629 -10.48994599 -5.24497299 0 0 Z " fill="#F4F4F4" transform="translate(153.75,107.5)"/>
<path d="M0 0 C1.43034568 0.80962963 2.85277608 1.63446306 4.25 2.5 C4.25 7.21906188 2.96245796 8.77037031 0.25 12.5 C-0.513125 12.190625 -1.27625 11.88125 -2.0625 11.5625 C-6.55204922 9.78756193 -9.9191105 9.40885114 -14.75 9.5 C-15.08 11.15 -15.41 12.8 -15.75 14.5 C-14.65300781 14.93570313 -13.55601562 15.37140625 -12.42578125 15.8203125 C-10.97099237 16.42099952 -9.51658512 17.02261139 -8.0625 17.625 C-7.34126953 17.90859375 -6.62003906 18.1921875 -5.87695312 18.484375 C-0.12524383 20.90061818 3.3949539 23.7899078 6.25 29.5 C6.65399154 34.75189007 6.13990343 38.06881474 3.25 42.5 C-1.85818571 47.49467047 -6.31847497 49.50914864 -13.375 49.9375 C-19.65893793 49.82289931 -25.31076899 47.55526426 -30.75 44.5 C-31.41 43.51 -32.07 42.52 -32.75 41.5 C-30.77 38.86 -28.79 36.22 -26.75 33.5 C-22 35.375 -22 35.375 -19.75 36.5 C-17.87620395 36.57033769 -15.99998898 36.5843022 -14.125 36.5625 C-13.12210938 36.55347656 -12.11921875 36.54445312 -11.0859375 36.53515625 C-10.31507813 36.52355469 -9.54421875 36.51195312 -8.75 36.5 C-8.75 34.85 -8.75 33.2 -8.75 31.5 C-10.39548828 30.73816406 -10.39548828 30.73816406 -12.07421875 29.9609375 C-13.52901184 29.26639112 -14.98341874 28.57103542 -16.4375 27.875 C-17.15873047 27.54371094 -17.87996094 27.21242187 -18.62304688 26.87109375 C-23.60924104 24.4576847 -26.65056086 22.13422884 -29.75 17.5 C-30.77784072 14.01190223 -30.61200891 11.0239358 -29.75 7.5 C-23.18746472 -3.50458562 -11.20484634 -5.62633109 0 0 Z " fill="#F4F4F4" transform="translate(193.75,107.5)"/>
<path d="M0 0 C2.08218362 -0.10832169 4.16599129 -0.18573541 6.25 -0.25 C7.99023438 -0.31960937 7.99023438 -0.31960937 9.765625 -0.390625 C13 0 13 0 15.359375 1.890625 C18.1477732 5.4757084 18.17410687 7.80738932 18.31640625 12.3203125 C18.35830078 13.57714844 18.40019531 14.83398438 18.44335938 16.12890625 C18.48267578 17.44761719 18.52199219 18.76632813 18.5625 20.125 C18.60569512 21.46485751 18.64930973 22.80470156 18.69335938 24.14453125 C18.79970981 27.42957815 18.90173808 30.71470281 19 34 C21.31 34.99 23.62 35.98 26 37 C26 39.97 26 42.94 26 46 C25.030625 46.28875 24.06125 46.5775 23.0625 46.875 C19.89335797 47.64214682 19.89335797 47.64214682 19 50 C18.8815162 51.97295696 18.82093993 53.94952687 18.7890625 55.92578125 C18.74652344 57.70952148 18.74652344 57.70952148 18.703125 59.52929688 C18.65128666 62.03956868 18.60694362 64.55000711 18.5703125 67.06054688 C18.52390625 68.85008789 18.52390625 68.85008789 18.4765625 70.67578125 C18.45674316 71.76802002 18.43692383 72.86025879 18.41650391 73.9855957 C17.95016469 77.36067795 16.99961628 79.2655629 15 82 C10.48559528 84.872803 5.15844951 84.18029532 0 84 C0 81.36 0 78.72 0 76 C2.97 75.505 2.97 75.505 6 75 C6.0093457 74.14768799 6.01869141 73.29537598 6.02832031 72.41723633 C6.07246921 69.23916483 6.13414267 66.06204216 6.20751953 62.88452148 C6.23565375 61.51225093 6.25690586 60.13982059 6.27099609 58.76733398 C6.29252731 56.78861506 6.3412928 54.8102523 6.390625 52.83203125 C6.41157227 51.64327393 6.43251953 50.4545166 6.45410156 49.22973633 C7.09255841 45.45239032 8.39758857 43.74976051 11 41 C10.35256836 40.47438477 9.70513672 39.94876953 9.03808594 39.40722656 C6.40290258 36.29475556 6.46408077 34.52444234 6.390625 30.484375 C6.35839844 29.23398438 6.32617188 27.98359375 6.29296875 26.6953125 C6.27878906 25.39335938 6.26460937 24.09140625 6.25 22.75 C6.22035156 21.43257812 6.19070312 20.11515625 6.16015625 18.7578125 C6.08944612 15.50514657 6.03675214 12.25319807 6 9 C4.02 8.34 2.04 7.68 0 7 C0 4.69 0 2.38 0 0 Z " fill="#F9F8F7" transform="translate(202,86)"/>
<path d="M0 0 C2.4375 1.6875 2.4375 1.6875 4 4 C4 5.65 4 7.3 4 9 C-1.61 9 -7.22 9 -13 9 C-12 4 -12 4 -9.875 1.6875 C-6.24065806 -0.44570071 -4.151996 -0.60392669 0 0 Z " fill="#335385" transform="translate(102,116)"/>
</svg>
